<svg width="24" height="24" viewBox="0 0 24 24" fill="none" xmlns="http://www.w3.org/2000/svg">
<path opacity="0.3" d="M13 8C13 7.44772 12.5523 7 12 7C11.4477 7 11 7.44772 11 8V20C11 20.5523 11.4477 21 12 21C12.5523 21 13 20.5523 13 20V8Z" fill="white"/>
<path d="M6.70711 14.7071C6.31658 15.0976 5.68342 15.0976 5.29289 14.7071C4.90237 14.3166 4.90237 13.6834 5.29289 13.2929L11.2929 7.29289C11.6715 6.91432 12.2811 6.90107 12.6757 7.26285L18.6757 12.7628C19.0828 13.136 19.1103 13.7686 18.7372 14.1757C18.364 14.5828 17.7314 14.6103 17.3243 14.2372L12.0301 9.38414L6.70711 14.7071Z" fill="white"/>
<path opacity="0.3" d="M20 3H4C3.44772 3 3 3.44772 3 4C3 4.55228 3.44772 5 4 5H20C20.5523 5 21 4.55228 21 4C21 3.44772 20.5523 3 20 3Z" fill="white"/>
</svg>
