<svg width="44" height="44" viewBox="0 0 44 44" fill="none" xmlns="http://www.w3.org/2000/svg">
<rect width="44" height="44" rx="6" fill="#EEE5FF"/>
<path opacity="0.3" fill-rule="evenodd" clip-rule="evenodd" d="M18.3333 12.125V12.6458C18.3333 13.5088 19.0328 14.2083 19.8958 14.2083H25.1041C25.9671 14.2083 26.6666 13.5088 26.6666 12.6458V12.125H28.75C29.9005 12.125 30.8333 13.0577 30.8333 14.2083V30.875C30.8333 32.0256 29.9005 32.9583 28.75 32.9583H16.25C15.0994 32.9583 14.1666 32.0256 14.1666 30.875V14.2083C14.1666 13.0577 15.0994 12.125 16.25 12.125H18.3333Z" fill="#8950FC"/>
<path fill-rule="evenodd" clip-rule="evenodd" d="M21.3282 25.4062C21.0786 25.4062 20.829 25.3064 20.6294 25.1068L18.6329 23.1102C18.2335 22.7109 18.2335 22.112 18.6329 21.7127C19.0322 21.3134 19.681 21.3134 20.0304 21.7127L21.3282 23.0104L24.6224 19.7161C25.0217 19.3168 25.6207 19.3168 26.02 19.7161C26.4193 20.1154 26.4193 20.7144 26.02 21.1137L22.0269 25.1068C21.8273 25.3064 21.5777 25.4062 21.3282 25.4062Z" fill="#8950FC"/>
<path fill-rule="evenodd" clip-rule="evenodd" d="M21.4583 11.0833C21.4583 10.508 21.9247 10.0417 22.5 10.0417C23.0753 10.0417 23.5417 10.508 23.5417 11.0833H25.1042C25.3918 11.0833 25.625 11.3165 25.625 11.6042V12.6458C25.625 12.9335 25.3918 13.1667 25.1042 13.1667H19.8958C19.6082 13.1667 19.375 12.9335 19.375 12.6458V11.6042C19.375 11.3165 19.6082 11.0833 19.8958 11.0833H21.4583Z" fill="#8950FC"/>
</svg>
