<svg width="24" height="24" viewBox="0 0 24 24" fill="none" xmlns="http://www.w3.org/2000/svg">
<path opacity="0.3" d="M11 12C11 12.5523 11.4477 13 12 13C12.5523 13 13 12.5523 13 12L13 2C13 1.44771 12.5523 1 12 1C11.4477 1 11 1.44771 11 2L11 12Z" fill="#464E5F"/>
<path opacity="0.3" d="M17 7.99999C16.4477 7.99999 16 7.55227 16 6.99999C16 6.4477 16.4477 5.99999 17 5.99999H18C20.2091 5.99999 22 7.79085 22 9.99999V18C22 20.2091 20.2091 22 18 22H6C3.79086 22 2 20.2091 2 18V9.99304C2 7.7839 3.79086 5.99304 6 5.99304H7C7.55229 5.99304 8 6.44076 8 6.99304C8 7.54533 7.55229 7.99304 7 7.99304H6C4.89543 7.99304 4 8.88847 4 9.99304V18C4 19.1046 4.89543 20 6 20H18C19.1046 20 20 19.1046 20 18V9.99999C20 8.89542 19.1046 7.99999 18 7.99999H17Z" fill="#464E5F"/>
<path d="M14.2929 10.2929C14.6834 9.90237 15.3166 9.90237 15.7071 10.2929C16.0976 10.6834 16.0976 11.3166 15.7071 11.7071L12.7071 14.7071C12.3166 15.0976 11.6834 15.0976 11.2929 14.7071L8.29289 11.7071C7.90237 11.3166 7.90237 10.6834 8.29289 10.2929C8.68342 9.90237 9.31658 9.90237 9.70711 10.2929L12 12.5858L14.2929 10.2929Z" fill="#464E5F"/>
</svg>
