<svg width="44" height="44" viewBox="0 0 44 44" fill="none" xmlns="http://www.w3.org/2000/svg">
<rect width="44" height="44" rx="6" fill="#D7F9EF"/>
<path opacity="0.3" fill-rule="evenodd" clip-rule="evenodd" d="M18 13V13.5C18 14.3284 18.6716 15 19.5 15H24.5C25.3284 15 26 14.3284 26 13.5V13H28C29.1046 13 30 13.8954 30 15V31C30 32.1046 29.1046 33 28 33H16C14.8954 33 14 32.1046 14 31V15C14 13.8954 14.8954 13 16 13H18Z" fill="#00BEA4"/>
<path fill-rule="evenodd" clip-rule="evenodd" d="M21 12C21 11.4477 21.4477 11 22 11C22.5523 11 23 11.4477 23 12H24.5C24.7761 12 25 12.2239 25 12.5V13.5C25 13.7761 24.7761 14 24.5 14H19.5C19.2239 14 19 13.7761 19 13.5V12.5C19 12.2239 19.2239 12 19.5 12H21Z" fill="#00BEA4"/>
<path opacity="0.3" d="M26 19H21C20.4477 19 20 19.4477 20 20C20 20.5523 20.4477 21 21 21H26C26.5523 21 27 20.5523 27 20C27 19.4477 26.5523 19 26 19Z" fill="#00BEA4"/>
<path opacity="0.3" d="M19 20C19 19.4477 18.5523 19 18 19C17.4477 19 17 19.4477 17 20C17 20.5523 17.4477 21 18 21C18.5523 21 19 20.5523 19 20Z" fill="#00BEA4"/>
<path opacity="0.3" d="M19 24C19 23.4477 18.5523 23 18 23C17.4477 23 17 23.4477 17 24C17 24.5523 17.4477 25 18 25C18.5523 25 19 24.5523 19 24Z" fill="#00BEA4"/>
<path opacity="0.3" d="M26 23H21C20.4477 23 20 23.4477 20 24C20 24.5523 20.4477 25 21 25H26C26.5523 25 27 24.5523 27 24C27 23.4477 26.5523 23 26 23Z" fill="#00BEA4"/>
<path opacity="0.3" d="M19 28C19 27.4477 18.5523 27 18 27C17.4477 27 17 27.4477 17 28C17 28.5523 17.4477 29 18 29C18.5523 29 19 28.5523 19 28Z" fill="#00BEA4"/>
<path opacity="0.3" d="M26 27H21C20.4477 27 20 27.4477 20 28C20 28.5523 20.4477 29 21 29H26C26.5523 29 27 28.5523 27 28C27 27.4477 26.5523 27 26 27Z" fill="#00BEA4"/>
</svg>
