<svg width="24" height="24" viewBox="0 0 24 24" fill="none" xmlns="http://www.w3.org/2000/svg">
<path d="M18 6H11C10.3333 5.88562 10 5.55228 10 5C10 4.44772 10.3333 4.11438 11 4H20V13C20 13.6667 19.6667 14 19 14C18.3333 14 18 13.6667 18 13V6ZM6 18H13C13.6667 18.1144 14 18.4477 14 19C14 19.5523 13.6667 19.8856 13 20H4V11C4 10.3333 4.33333 10 5 10C5.66667 10 6 10.3333 6 11V18Z" fill="#464E5F"/>
<path opacity="0.3" d="M14.1213 8.46447L8.46443 14.1213C8.07391 14.5118 8.07391 15.145 8.46443 15.5355C8.85496 15.9261 9.48812 15.9261 9.87864 15.5355L15.5355 9.87868C15.926 9.48816 15.926 8.85499 15.5355 8.46447C15.145 8.07394 14.5118 8.07394 14.1213 8.46447Z" fill="#464E5F"/>
</svg>
