<svg width="44" height="44" viewBox="0 0 44 44" fill="none" xmlns="http://www.w3.org/2000/svg">
<rect width="44" height="44" rx="6" fill="#FFE2E5"/>
<path opacity="0.3" d="M15.8571 12H23.7364C24.0911 12 24.4343 12.1257 24.7051 12.3547L29.4687 16.3839C29.8057 16.6689 30 17.0879 30 17.5292V30.0833C30 31.8739 29.9796 32 28.1429 32H15.8571C14.0204 32 14 31.8739 14 30.0833V13.9167C14 12.1261 14.0204 12 15.8571 12Z" fill="#FF4F4F"/>
<path fill-rule="evenodd" clip-rule="evenodd" d="M18.9512 23.8153H20.9077V25.823C20.9077 26.0991 21.1315 26.323 21.4077 26.323H22.431C22.7071 26.323 22.931 26.0991 22.931 25.823V23.8153H24.8874C25.1636 23.8153 25.3874 23.5915 25.3874 23.3153C25.3874 23.197 25.3455 23.0825 25.269 22.9922L22.3009 19.4866C22.1225 19.2758 21.807 19.2496 21.5962 19.4281C21.5751 19.4459 21.5556 19.4655 21.5377 19.4866L18.5696 22.9922C18.3912 23.203 18.4173 23.5185 18.6281 23.6969C18.7184 23.7734 18.8329 23.8153 18.9512 23.8153Z" fill="#FF4F4F"/>
</svg>
