<svg width="44" height="44" viewBox="0 0 44 44" fill="none" xmlns="http://www.w3.org/2000/svg">
<rect width="44" height="44" rx="6" fill="#E1F0FF"/>
<path opacity="0.3" d="M22 31C26.9706 31 31 26.9706 31 22C31 17.0294 26.9706 13 22 13C17.0294 13 13 17.0294 13 22C13 26.9706 17.0294 31 22 31Z" fill="#3699FF"/>
<path fill-rule="evenodd" clip-rule="evenodd" d="M21.7358 30.9962C16.8874 30.8564 13 26.8822 13 22C13 21.9168 13.0011 21.8339 13.0034 21.7513C13.6623 21.8143 14.8564 21.9574 14.9126 22.4204C14.9905 23.0609 14.9126 23.8616 15.458 24.1018C16.0035 24.342 16.1593 23.1409 16.6267 23.4613C17.0942 23.7816 18.3409 24.0899 18.3409 24.6562C18.3409 25.2224 18.1072 26.1035 18.3409 26.2636C18.5746 26.4238 19.509 27.5446 19.5092 27.7048C19.5096 27.865 19.8386 28.6794 19.7404 28.9907C19.6591 29.2487 19.2486 30.0502 18.8506 30.4146C19.7532 30.7621 20.7236 30.9658 21.7358 30.9961V30.9962ZM18.2827 13.8011C19.4158 13.2866 20.6745 13 22 13C25.5115 13 28.5532 15.011 30.0364 17.9441C30.0697 18.7241 30.0638 19.3914 30.2361 19.6327C31.1132 20.8601 28.0995 21.7043 28.5573 23.5605C28.759 24.3795 26.5528 24.1197 26.014 24.8864C25.4748 25.6527 24.1575 25.1378 23.852 24.9905C23.5466 24.8432 22.3766 25.3341 22.4789 24.4995C22.5806 23.6646 23.2923 23.6156 24.0556 23.272C24.8185 22.9287 25.9189 21.7872 25.3782 21.638C22.8323 20.9362 21.9638 18.4785 21.9638 18.4785C21.811 18.449 21.8494 16.7411 21.1884 16.6921C20.5267 16.6428 20.1705 16.8884 19.2044 16.6921C18.2376 16.4957 18.4414 15.8574 18.2887 14.4826C18.2545 14.1742 18.2562 13.9572 18.2827 13.8011ZM30.9992 21.877C30.9997 21.918 31 21.9589 31 22C31 26.9407 27.0188 30.9515 22.0895 30.9996C26.9702 30.9503 30.9337 26.8884 30.9992 21.877Z" fill="#3699FF"/>
</svg>
