<svg width="48" height="48" viewBox="0 0 48 48" fill="none" xmlns="http://www.w3.org/2000/svg">
<path opacity="0.3" fill-rule="evenodd" clip-rule="evenodd" d="M16 6V7C16 8.65685 17.3431 10 19 10H29C30.6569 10 32 8.65685 32 7V6H36C38.2091 6 40 7.79086 40 10V42C40 44.2091 38.2091 46 36 46H12C9.79086 46 8 44.2091 8 42V10C8 7.79086 9.79086 6 12 6H16Z" fill="#B5B5C3"/>
<path fill-rule="evenodd" clip-rule="evenodd" d="M21.75 31.5C21.2708 31.5 20.7917 31.3083 20.4083 30.925L16.575 27.0917C15.8083 26.325 15.8083 25.175 16.575 24.4083C17.3417 23.6417 18.5875 23.6417 19.2583 24.4083L21.75 26.9L28.075 20.575C28.8417 19.8083 29.9917 19.8083 30.7583 20.575C31.525 21.3417 31.525 22.4917 30.7583 23.2583L23.0917 30.925C22.7083 31.3083 22.2292 31.5 21.75 31.5Z" fill="#B5B5C3"/>
<path fill-rule="evenodd" clip-rule="evenodd" d="M22 4C22 2.89543 22.8954 2 24 2C25.1046 2 26 2.89543 26 4H29C29.5523 4 30 4.44772 30 5V7C30 7.55228 29.5523 8 29 8H19C18.4477 8 18 7.55228 18 7V5C18 4.44772 18.4477 4 19 4H22Z" fill="#B5B5C3"/>
</svg>
