<svg width="25" height="25" viewBox="0 0 25 25" fill="none" xmlns="http://www.w3.org/2000/svg">
<path opacity="0.3" fill-rule="evenodd" clip-rule="evenodd" d="M8.33329 3.125V3.64583C8.33329 4.50878 9.03285 5.20833 9.89579 5.20833H15.1041C15.9671 5.20833 16.6666 4.50878 16.6666 3.64583V3.125H18.75C19.9005 3.125 20.8333 4.05774 20.8333 5.20833V21.875C20.8333 23.0256 19.9005 23.9583 18.75 23.9583H6.24996C5.09937 23.9583 4.16663 23.0256 4.16663 21.875V5.20833C4.16663 4.05774 5.09937 3.125 6.24996 3.125H8.33329Z" fill="#8950FC"/>
<path fill-rule="evenodd" clip-rule="evenodd" d="M11.3282 16.4062C11.0786 16.4062 10.829 16.3064 10.6294 16.1068L8.63285 14.1102C8.23355 13.7109 8.23355 13.112 8.63285 12.7127C9.03216 12.3134 9.68103 12.3134 10.0304 12.7127L11.3282 14.0104L14.6224 10.7161C15.0217 10.3168 15.6207 10.3168 16.02 10.7161C16.4193 11.1154 16.4193 11.7144 16.02 12.1137L12.0269 16.1068C11.8273 16.3064 11.5777 16.4062 11.3282 16.4062Z" fill="#8950FC"/>
<path fill-rule="evenodd" clip-rule="evenodd" d="M11.4583 2.08332C11.4583 1.50803 11.9247 1.04166 12.5 1.04166C13.0753 1.04166 13.5417 1.50803 13.5417 2.08332H15.1042C15.3918 2.08332 15.625 2.31651 15.625 2.60416V3.64582C15.625 3.93347 15.3918 4.16666 15.1042 4.16666H9.89583C9.60819 4.16666 9.375 3.93347 9.375 3.64582V2.60416C9.375 2.31651 9.60819 2.08332 9.89583 2.08332H11.4583Z" fill="#8950FC"/>
</svg>
