<svg width="40" height="40" viewBox="0 0 40 40" fill="none" xmlns="http://www.w3.org/2000/svg">
<rect width="40" height="40" rx="6" fill="#3699FF" fill-opacity="0.15"/>
<path opacity="0.3" d="M10 21C10 20.5 10.5 20 11 20C11.5 20 12 20.5 12 21C12 21.3333 12 23 12 26C12 27.1046 12.8954 28 14 28H26C27.1046 28 28 27.1046 28 26V21C28 20.4477 28.4477 20 29 20C29.5523 20 30 20.4477 30 21V26C30 28.2091 28.2091 30 26 30H14C11.7909 30 10 28.2091 10 26C10 23 10 21.3333 10 21Z" fill="#3699FF"/>
<path opacity="0.3" d="M19 22C19 22.5523 19.4477 23 20 23C20.5523 23 21 22.5523 21 22V10C21 9.44771 20.5523 9 20 9C19.4477 9 19 9.44771 19 10V22Z" fill="#3699FF"/>
<path d="M24.2929 17.2929C24.6834 16.9024 25.3166 16.9024 25.7071 17.2929C26.0976 17.6834 26.0976 18.3166 25.7071 18.7071L20.7071 23.7071C20.331 24.0832 19.7264 24.0991 19.331 23.7433L14.331 19.2433C13.9205 18.8738 13.8872 18.2415 14.2567 17.831C14.6262 17.4205 15.2585 17.3872 15.669 17.7567L19.9638 21.622L24.2929 17.2929Z" fill="#3699FF"/>
</svg>
