<svg width="28" height="36" viewBox="0 0 28 36" fill="none" xmlns="http://www.w3.org/2000/svg">
<path fill-rule="evenodd" clip-rule="evenodd" d="M27.5625 9.47362V33.1577C27.5625 34.7276 26.2856 36 24.7112 36H2.85131C1.27631 36 0 34.7276 0 33.1577V2.84231C0 1.27238 1.27631 0 2.85131 0H18.0579L27.5625 9.47362Z" fill="#3699FF"/>
<path d="M9.16857 21.049V23.461C9.16857 23.629 9.20757 23.752 9.28557 23.83C9.36957 23.902 9.50757 23.938 9.69957 23.938H10.2846V25H9.49257C8.43057 25 7.89957 24.484 7.89957 23.452V21.049H7.30557V20.014H7.89957V18.781H9.16857V20.014H10.2846V21.049H9.16857ZM13.9448 25L12.9188 23.452L12.0098 25H10.6598L12.2888 22.498L10.6418 20.014H12.0638L13.0808 21.553L13.9988 20.014H15.3488L13.7108 22.498L15.3668 25H13.9448ZM17.5182 21.049V23.461C17.5182 23.629 17.5572 23.752 17.6352 23.83C17.7192 23.902 17.8572 23.938 18.0492 23.938H18.6342V25H17.8422C16.7802 25 16.2492 24.484 16.2492 23.452V21.049H15.6552V20.014H16.2492V18.781H17.5182V20.014H18.6342V21.049H17.5182Z" fill="white"/>
<path fill-rule="evenodd" clip-rule="evenodd" d="M27.5629 8.94319V10.1222H19.7931C18.1843 10.1222 17.4424 8.81719 17.4424 7.20788V0H18.6191L27.5629 8.94319Z" fill="#7CC9F9"/>
</svg>
