<svg width="28" height="36" viewBox="0 0 28 36" fill="none" xmlns="http://www.w3.org/2000/svg">
<path fill-rule="evenodd" clip-rule="evenodd" d="M27.5625 9.47362V33.1577C27.5625 34.7276 26.2856 36 24.7112 36H2.85131C1.27631 36 0 34.7276 0 33.1577V2.84231C0 1.27238 1.27631 0 2.85131 0H18.0579L27.5625 9.47362Z" fill="#5F5CF1"/>
<path d="M9.85402 19.942C10.466 19.942 10.958 20.131 11.33 20.509C11.708 20.881 11.897 21.403 11.897 22.075V25H10.637V22.246C10.637 21.856 10.538 21.559 10.34 21.355C10.142 21.145 9.87202 21.04 9.53002 21.04C9.18802 21.04 8.91502 21.145 8.71102 21.355C8.51302 21.559 8.41402 21.856 8.41402 22.246V25H7.15402V22.246C7.15402 21.856 7.05502 21.559 6.85702 21.355C6.65902 21.145 6.38902 21.04 6.04702 21.04C5.69902 21.04 5.42302 21.145 5.21902 21.355C5.02102 21.559 4.92202 21.856 4.92202 22.246V25H3.66202V20.014H4.92202V20.617C5.08402 20.407 5.29102 20.242 5.54302 20.122C5.80102 20.002 6.08302 19.942 6.38902 19.942C6.77902 19.942 7.12702 20.026 7.43302 20.194C7.73902 20.356 7.97602 20.59 8.14402 20.896C8.30602 20.608 8.54002 20.377 8.84602 20.203C9.15802 20.029 9.49402 19.942 9.85402 19.942ZM14.3527 20.734C14.5147 20.506 14.7367 20.317 15.0187 20.167C15.3067 20.011 15.6337 19.933 15.9997 19.933C16.4257 19.933 16.8097 20.038 17.1517 20.248C17.4997 20.458 17.7727 20.758 17.9707 21.148C18.1747 21.532 18.2767 21.979 18.2767 22.489C18.2767 22.999 18.1747 23.452 17.9707 23.848C17.7727 24.238 17.4997 24.541 17.1517 24.757C16.8097 24.973 16.4257 25.081 15.9997 25.081C15.6337 25.081 15.3097 25.006 15.0277 24.856C14.7517 24.706 14.5267 24.517 14.3527 24.289V27.376H13.0927V20.014H14.3527V20.734ZM16.9897 22.489C16.9897 22.189 16.9267 21.931 16.8007 21.715C16.6807 21.493 16.5187 21.325 16.3147 21.211C16.1167 21.097 15.9007 21.04 15.6667 21.04C15.4387 21.04 15.2227 21.1 15.0187 21.22C14.8207 21.334 14.6587 21.502 14.5327 21.724C14.4127 21.946 14.3527 22.207 14.3527 22.507C14.3527 22.807 14.4127 23.068 14.5327 23.29C14.6587 23.512 14.8207 23.683 15.0187 23.803C15.2227 23.917 15.4387 23.974 15.6667 23.974C15.9007 23.974 16.1167 23.914 16.3147 23.794C16.5187 23.674 16.6807 23.503 16.8007 23.281C16.9267 23.059 16.9897 22.795 16.9897 22.489ZM19.0663 20.167C19.0963 19.567 19.3063 19.105 19.6963 18.781C20.0923 18.451 20.6113 18.286 21.2533 18.286C21.6913 18.286 22.0663 18.364 22.3783 18.52C22.6903 18.67 22.9243 18.877 23.0803 19.141C23.2423 19.399 23.3233 19.693 23.3233 20.023C23.3233 20.401 23.2243 20.722 23.0263 20.986C22.8343 21.244 22.6033 21.418 22.3333 21.508V21.544C22.6813 21.652 22.9513 21.844 23.1433 22.12C23.3413 22.396 23.4403 22.75 23.4403 23.182C23.4403 23.542 23.3563 23.863 23.1883 24.145C23.0263 24.427 22.7833 24.649 22.4593 24.811C22.1413 24.967 21.7573 25.045 21.3073 25.045C20.6293 25.045 20.0773 24.874 19.6513 24.532C19.2253 24.19 19.0003 23.686 18.9763 23.02H20.2003C20.2123 23.314 20.3113 23.551 20.4973 23.731C20.6893 23.905 20.9503 23.992 21.2803 23.992C21.5863 23.992 21.8203 23.908 21.9823 23.74C22.1503 23.566 22.2343 23.344 22.2343 23.074C22.2343 22.714 22.1203 22.456 21.8923 22.3C21.6643 22.144 21.3103 22.066 20.8303 22.066H20.5693V21.031H20.8303C21.6823 21.031 22.1083 20.746 22.1083 20.176C22.1083 19.918 22.0303 19.717 21.8743 19.573C21.7243 19.429 21.5053 19.357 21.2173 19.357C20.9353 19.357 20.7163 19.435 20.5603 19.591C20.4103 19.741 20.3233 19.933 20.2993 20.167H19.0663Z" fill="white"/>
<path fill-rule="evenodd" clip-rule="evenodd" d="M27.5629 8.94319V10.1222H19.7931C18.1843 10.1222 17.4424 8.81719 17.4424 7.20788V0H18.6191L27.5629 8.94319Z" fill="#91A8FF"/>
</svg>
