<svg width="28" height="36" viewBox="0 0 28 36" fill="none" xmlns="http://www.w3.org/2000/svg">
<g clip-path="url(#clip0)">
<path fill-rule="evenodd" clip-rule="evenodd" d="M27.5625 9.47362V33.1577C27.5625 34.7276 26.2856 36 24.7112 36H2.85131C1.27631 36 0 34.7276 0 33.1577V2.84231C0 1.27238 1.27631 0 2.85131 0H18.0579L27.5625 9.47362Z" fill="#F64E60"/>
<path d="M8.23012 20.734C8.39212 20.506 8.61412 20.317 8.89612 20.167C9.18412 20.011 9.51112 19.933 9.87712 19.933C10.3031 19.933 10.6871 20.038 11.0291 20.248C11.3771 20.458 11.6501 20.758 11.8481 21.148C12.0521 21.532 12.1541 21.979 12.1541 22.489C12.1541 22.999 12.0521 23.452 11.8481 23.848C11.6501 24.238 11.3771 24.541 11.0291 24.757C10.6871 24.973 10.3031 25.081 9.87712 25.081C9.51112 25.081 9.18712 25.006 8.90512 24.856C8.62912 24.706 8.40412 24.517 8.23012 24.289V27.376H6.97012V20.014H8.23012V20.734ZM10.8671 22.489C10.8671 22.189 10.8041 21.931 10.6781 21.715C10.5581 21.493 10.3961 21.325 10.1921 21.211C9.99412 21.097 9.77812 21.04 9.54412 21.04C9.31612 21.04 9.10012 21.1 8.89612 21.22C8.69812 21.334 8.53612 21.502 8.41012 21.724C8.29012 21.946 8.23012 22.207 8.23012 22.507C8.23012 22.807 8.29012 23.068 8.41012 23.29C8.53612 23.512 8.69812 23.683 8.89612 23.803C9.10012 23.917 9.31612 23.974 9.54412 23.974C9.77812 23.974 9.99412 23.914 10.1921 23.794C10.3961 23.674 10.5581 23.503 10.6781 23.281C10.8041 23.059 10.8671 22.795 10.8671 22.489ZM12.7457 22.489C12.7457 21.985 12.8447 21.538 13.0427 21.148C13.2467 20.758 13.5227 20.458 13.8707 20.248C14.2187 20.038 14.6057 19.933 15.0317 19.933C15.3557 19.933 15.6647 20.005 15.9587 20.149C16.2527 20.287 16.4867 20.473 16.6607 20.707V18.34H17.9387V25H16.6607V24.262C16.5047 24.508 16.2857 24.706 16.0037 24.856C15.7217 25.006 15.3947 25.081 15.0227 25.081C14.6027 25.081 14.2187 24.973 13.8707 24.757C13.5227 24.541 13.2467 24.238 13.0427 23.848C12.8447 23.452 12.7457 22.999 12.7457 22.489ZM16.6697 22.507C16.6697 22.201 16.6097 21.94 16.4897 21.724C16.3697 21.502 16.2077 21.334 16.0037 21.22C15.7997 21.1 15.5807 21.04 15.3467 21.04C15.1127 21.04 14.8967 21.097 14.6987 21.211C14.5007 21.325 14.3387 21.493 14.2127 21.715C14.0927 21.931 14.0327 22.189 14.0327 22.489C14.0327 22.789 14.0927 23.053 14.2127 23.281C14.3387 23.503 14.5007 23.674 14.6987 23.794C14.9027 23.914 15.1187 23.974 15.3467 23.974C15.5807 23.974 15.7997 23.917 16.0037 23.803C16.2077 23.683 16.3697 23.515 16.4897 23.299C16.6097 23.077 16.6697 22.813 16.6697 22.507ZM21.4553 21.049H20.5823V25H19.3043V21.049H18.7373V20.014H19.3043V19.762C19.3043 19.15 19.4783 18.7 19.8263 18.412C20.1743 18.124 20.6993 17.989 21.4013 18.007V19.069C21.0953 19.063 20.8823 19.114 20.7623 19.222C20.6423 19.33 20.5823 19.525 20.5823 19.807V20.014H21.4553V21.049Z" fill="white"/>
<path fill-rule="evenodd" clip-rule="evenodd" d="M27.5629 8.94319V10.1222H19.7931C18.1843 10.1222 17.4424 8.81719 17.4424 7.20788V0H18.6191L27.5629 8.94319Z" fill="#FB8D8D"/>
</g>
<defs>
<clipPath id="clip0">
<rect width="27.5625" height="36" fill="white"/>
</clipPath>
</defs>
</svg>
