<svg width="28" height="36" viewBox="0 0 28 36" fill="none" xmlns="http://www.w3.org/2000/svg">
<path fill-rule="evenodd" clip-rule="evenodd" d="M27.5625 9.47362V33.1577C27.5625 34.7276 26.2856 36 24.7112 36H2.85131C1.27631 36 0 34.7276 0 33.1577V2.84231C0 1.27238 1.27631 0 2.85131 0H18.0579L27.5625 9.47362Z" fill="#3699FF"/>
<path d="M8.17094 25.081C7.69094 25.081 7.25894 24.976 6.87494 24.766C6.49094 24.55 6.18794 24.247 5.96594 23.857C5.74994 23.467 5.64194 23.017 5.64194 22.507C5.64194 21.997 5.75294 21.547 5.97494 21.157C6.20294 20.767 6.51194 20.467 6.90194 20.257C7.29194 20.041 7.72694 19.933 8.20694 19.933C8.68694 19.933 9.12194 20.041 9.51194 20.257C9.90194 20.467 10.2079 20.767 10.4299 21.157C10.6579 21.547 10.7719 21.997 10.7719 22.507C10.7719 23.017 10.6549 23.467 10.4209 23.857C10.1929 24.247 9.88094 24.55 9.48494 24.766C9.09494 24.976 8.65694 25.081 8.17094 25.081ZM8.17094 23.983C8.39894 23.983 8.61194 23.929 8.80994 23.821C9.01394 23.707 9.17594 23.539 9.29594 23.317C9.41594 23.095 9.47594 22.825 9.47594 22.507C9.47594 22.033 9.34994 21.67 9.09794 21.418C8.85194 21.16 8.54894 21.031 8.18894 21.031C7.82894 21.031 7.52594 21.16 7.27994 21.418C7.03994 21.67 6.91994 22.033 6.91994 22.507C6.91994 22.981 7.03694 23.347 7.27094 23.605C7.51094 23.857 7.81094 23.983 8.17094 23.983ZM11.3722 22.489C11.3722 21.985 11.4712 21.538 11.6692 21.148C11.8732 20.758 12.1492 20.458 12.4972 20.248C12.8452 20.038 13.2322 19.933 13.6582 19.933C13.9822 19.933 14.2912 20.005 14.5852 20.149C14.8792 20.287 15.1132 20.473 15.2872 20.707V18.34H16.5652V25H15.2872V24.262C15.1312 24.508 14.9122 24.706 14.6302 24.856C14.3482 25.006 14.0212 25.081 13.6492 25.081C13.2292 25.081 12.8452 24.973 12.4972 24.757C12.1492 24.541 11.8732 24.238 11.6692 23.848C11.4712 23.452 11.3722 22.999 11.3722 22.489ZM15.2962 22.507C15.2962 22.201 15.2362 21.94 15.1162 21.724C14.9962 21.502 14.8342 21.334 14.6302 21.22C14.4262 21.1 14.2072 21.04 13.9732 21.04C13.7392 21.04 13.5232 21.097 13.3252 21.211C13.1272 21.325 12.9652 21.493 12.8392 21.715C12.7192 21.931 12.6592 22.189 12.6592 22.489C12.6592 22.789 12.7192 23.053 12.8392 23.281C12.9652 23.503 13.1272 23.674 13.3252 23.794C13.5292 23.914 13.7452 23.974 13.9732 23.974C14.2072 23.974 14.4262 23.917 14.6302 23.803C14.8342 23.683 14.9962 23.515 15.1162 23.299C15.2362 23.077 15.2962 22.813 15.2962 22.507ZM19.2628 21.049V23.461C19.2628 23.629 19.3018 23.752 19.3798 23.83C19.4638 23.902 19.6018 23.938 19.7938 23.938H20.3788V25H19.5868C18.5248 25 17.9938 24.484 17.9938 23.452V21.049H17.3998V20.014H17.9938V18.781H19.2628V20.014H20.3788V21.049H19.2628Z" fill="white"/>
<path fill-rule="evenodd" clip-rule="evenodd" d="M27.5629 8.94319V10.1222H19.7931C18.1843 10.1222 17.4424 8.81719 17.4424 7.20788V0H18.6191L27.5629 8.94319Z" fill="#7CC9F9"/>
</svg>
