<svg width="28" height="36" viewBox="0 0 28 36" fill="none" xmlns="http://www.w3.org/2000/svg">
<g clip-path="url(#clip0)">
<path fill-rule="evenodd" clip-rule="evenodd" d="M27.5625 9.47362V33.1577C27.5625 34.7276 26.2856 36 24.7112 36H2.85131C1.27631 36 0 34.7276 0 33.1577V2.84231C0 1.27238 1.27631 0 2.85131 0H18.0579L27.5625 9.47362Z" fill="#435055"/>
<path d="M11.9925 20.014L10.5345 25H9.17547L8.26647 21.517L7.35747 25H5.98947L4.52247 20.014H5.80047L6.68247 23.812L7.63647 20.014H8.96847L9.90447 23.803L10.7865 20.014H11.9925ZM12.3502 22.489C12.3502 21.985 12.4492 21.538 12.6472 21.148C12.8512 20.758 13.1242 20.458 13.4662 20.248C13.8142 20.038 14.2012 19.933 14.6272 19.933C14.9992 19.933 15.3232 20.008 15.5992 20.158C15.8812 20.308 16.1062 20.497 16.2742 20.725V20.014H17.5432V25H16.2742V24.271C16.1122 24.505 15.8872 24.7 15.5992 24.856C15.3172 25.006 14.9902 25.081 14.6182 25.081C14.1982 25.081 13.8142 24.973 13.4662 24.757C13.1242 24.541 12.8512 24.238 12.6472 23.848C12.4492 23.452 12.3502 22.999 12.3502 22.489ZM16.2742 22.507C16.2742 22.201 16.2142 21.94 16.0942 21.724C15.9742 21.502 15.8122 21.334 15.6082 21.22C15.4042 21.1 15.1852 21.04 14.9512 21.04C14.7172 21.04 14.5012 21.097 14.3032 21.211C14.1052 21.325 13.9432 21.493 13.8172 21.715C13.6972 21.931 13.6372 22.189 13.6372 22.489C13.6372 22.789 13.6972 23.053 13.8172 23.281C13.9432 23.503 14.1052 23.674 14.3032 23.794C14.5072 23.914 14.7232 23.974 14.9512 23.974C15.1852 23.974 15.4042 23.917 15.6082 23.803C15.8122 23.683 15.9742 23.515 16.0942 23.299C16.2142 23.077 16.2742 22.813 16.2742 22.507ZM20.8528 23.839L22.1128 20.014H23.4538L21.6088 25H20.0788L18.2428 20.014H19.5928L20.8528 23.839Z" fill="white"/>
<path fill-rule="evenodd" clip-rule="evenodd" d="M27.5629 8.94319V10.1222H19.7931C18.1843 10.1222 17.4424 8.81719 17.4424 7.20788V0H18.6191L27.5629 8.94319Z" fill="#8F9CA1"/>
</g>
<defs>
<clipPath id="clip0">
<rect width="27.5625" height="36" fill="white"/>
</clipPath>
</defs>
</svg>
