<svg width="28" height="36" viewBox="0 0 28 36" fill="none" xmlns="http://www.w3.org/2000/svg">
<g clip-path="url(#clip0)">
<path fill-rule="evenodd" clip-rule="evenodd" d="M27.5625 9.47362V33.1577C27.5625 34.7276 26.2856 36 24.7112 36H2.85131C1.27631 36 0 34.7276 0 33.1577V2.84231C0 1.27238 1.27631 0 2.85131 0H18.0579L27.5625 9.47362Z" fill="#435055"/>
<path d="M10.0728 19.942C10.6848 19.942 11.1768 20.131 11.5488 20.509C11.9268 20.881 12.1158 21.403 12.1158 22.075V25H10.8558V22.246C10.8558 21.856 10.7568 21.559 10.5588 21.355C10.3608 21.145 10.0908 21.04 9.74877 21.04C9.40677 21.04 9.13377 21.145 8.92977 21.355C8.73177 21.559 8.63277 21.856 8.63277 22.246V25H7.37277V22.246C7.37277 21.856 7.27377 21.559 7.07577 21.355C6.87777 21.145 6.60777 21.04 6.26577 21.04C5.91777 21.04 5.64177 21.145 5.43777 21.355C5.23977 21.559 5.14077 21.856 5.14077 22.246V25H3.88077V20.014H5.14077V20.617C5.30277 20.407 5.50977 20.242 5.76177 20.122C6.01977 20.002 6.30177 19.942 6.60777 19.942C6.99777 19.942 7.34577 20.026 7.65177 20.194C7.95777 20.356 8.19477 20.59 8.36277 20.896C8.52477 20.608 8.75877 20.377 9.06477 20.203C9.37677 20.029 9.71277 19.942 10.0728 19.942ZM14.5714 20.734C14.7334 20.506 14.9554 20.317 15.2374 20.167C15.5254 20.011 15.8524 19.933 16.2184 19.933C16.6444 19.933 17.0284 20.038 17.3704 20.248C17.7184 20.458 17.9914 20.758 18.1894 21.148C18.3934 21.532 18.4954 21.979 18.4954 22.489C18.4954 22.999 18.3934 23.452 18.1894 23.848C17.9914 24.238 17.7184 24.541 17.3704 24.757C17.0284 24.973 16.6444 25.081 16.2184 25.081C15.8524 25.081 15.5284 25.006 15.2464 24.856C14.9704 24.706 14.7454 24.517 14.5714 24.289V27.376H13.3114V20.014H14.5714V20.734ZM17.2084 22.489C17.2084 22.189 17.1454 21.931 17.0194 21.715C16.8994 21.493 16.7374 21.325 16.5334 21.211C16.3354 21.097 16.1194 21.04 15.8854 21.04C15.6574 21.04 15.4414 21.1 15.2374 21.22C15.0394 21.334 14.8774 21.502 14.7514 21.724C14.6314 21.946 14.5714 22.207 14.5714 22.507C14.5714 22.807 14.6314 23.068 14.7514 23.29C14.8774 23.512 15.0394 23.683 15.2374 23.803C15.4414 23.917 15.6574 23.974 15.8854 23.974C16.1194 23.974 16.3354 23.914 16.5334 23.794C16.7374 23.674 16.8994 23.503 17.0194 23.281C17.1454 23.059 17.2084 22.795 17.2084 22.489ZM19.213 23.722V22.732L22.156 18.52H23.623V22.624H24.415V23.722H23.623V25H22.363V23.722H19.213ZM22.444 19.87L20.599 22.624H22.444V19.87Z" fill="white"/>
<path fill-rule="evenodd" clip-rule="evenodd" d="M27.5629 8.94319V10.1222H19.7931C18.1843 10.1222 17.4424 8.81719 17.4424 7.20788V0H18.6191L27.5629 8.94319Z" fill="#8F9CA1"/>
</g>
<defs>
<clipPath id="clip0">
<rect width="27.5625" height="36" fill="white"/>
</clipPath>
</defs>
</svg>
