<svg width="28" height="36" viewBox="0 0 28 36" fill="none" xmlns="http://www.w3.org/2000/svg">
<g clip-path="url(#clip0)">
<path fill-rule="evenodd" clip-rule="evenodd" d="M27.5625 9.47362V33.1577C27.5625 34.7276 26.2856 36 24.7112 36H2.85131C1.27631 36 0 34.7276 0 33.1577V2.84231C0 1.27238 1.27631 0 2.85131 0H18.0579L27.5625 9.47362Z" fill="#EAA947"/>
<path d="M8.03676 20.734C8.19876 20.506 8.42076 20.317 8.70276 20.167C8.99076 20.011 9.31776 19.933 9.68376 19.933C10.1098 19.933 10.4938 20.038 10.8358 20.248C11.1838 20.458 11.4568 20.758 11.6548 21.148C11.8588 21.532 11.9608 21.979 11.9608 22.489C11.9608 22.999 11.8588 23.452 11.6548 23.848C11.4568 24.238 11.1838 24.541 10.8358 24.757C10.4938 24.973 10.1098 25.081 9.68376 25.081C9.31776 25.081 8.99376 25.006 8.71176 24.856C8.43576 24.706 8.21076 24.517 8.03676 24.289V27.376H6.77676V20.014H8.03676V20.734ZM10.6738 22.489C10.6738 22.189 10.6108 21.931 10.4848 21.715C10.3648 21.493 10.2028 21.325 9.99876 21.211C9.80076 21.097 9.58476 21.04 9.35076 21.04C9.12276 21.04 8.90676 21.1 8.70276 21.22C8.50476 21.334 8.34276 21.502 8.21676 21.724C8.09676 21.946 8.03676 22.207 8.03676 22.507C8.03676 22.807 8.09676 23.068 8.21676 23.29C8.34276 23.512 8.50476 23.683 8.70276 23.803C8.90676 23.917 9.12276 23.974 9.35076 23.974C9.58476 23.974 9.80076 23.914 9.99876 23.794C10.2028 23.674 10.3648 23.503 10.4848 23.281C10.6108 23.059 10.6738 22.795 10.6738 22.489ZM14.1364 20.734C14.2984 20.506 14.5204 20.317 14.8024 20.167C15.0904 20.011 15.4174 19.933 15.7834 19.933C16.2094 19.933 16.5934 20.038 16.9354 20.248C17.2834 20.458 17.5564 20.758 17.7544 21.148C17.9584 21.532 18.0604 21.979 18.0604 22.489C18.0604 22.999 17.9584 23.452 17.7544 23.848C17.5564 24.238 17.2834 24.541 16.9354 24.757C16.5934 24.973 16.2094 25.081 15.7834 25.081C15.4174 25.081 15.0934 25.006 14.8114 24.856C14.5354 24.706 14.3104 24.517 14.1364 24.289V27.376H12.8764V20.014H14.1364V20.734ZM16.7734 22.489C16.7734 22.189 16.7104 21.931 16.5844 21.715C16.4644 21.493 16.3024 21.325 16.0984 21.211C15.9004 21.097 15.6844 21.04 15.4504 21.04C15.2224 21.04 15.0064 21.1 14.8024 21.22C14.6044 21.334 14.4424 21.502 14.3164 21.724C14.1964 21.946 14.1364 22.207 14.1364 22.507C14.1364 22.807 14.1964 23.068 14.3164 23.29C14.4424 23.512 14.6044 23.683 14.8024 23.803C15.0064 23.917 15.2224 23.974 15.4504 23.974C15.6844 23.974 15.9004 23.914 16.0984 23.794C16.3024 23.674 16.4644 23.503 16.5844 23.281C16.7104 23.059 16.7734 22.795 16.7734 22.489ZM20.443 21.049V23.461C20.443 23.629 20.482 23.752 20.56 23.83C20.644 23.902 20.782 23.938 20.974 23.938H21.559V25H20.767C19.705 25 19.174 24.484 19.174 23.452V21.049H18.58V20.014H19.174V18.781H20.443V20.014H21.559V21.049H20.443Z" fill="white"/>
<path fill-rule="evenodd" clip-rule="evenodd" d="M27.5629 8.94319V10.1222H19.7931C18.1843 10.1222 17.4424 8.81719 17.4424 7.20788V0H18.6191L27.5629 8.94319Z" fill="#F6CB89"/>
</g>
<defs>
<clipPath id="clip0">
<rect width="27.5625" height="36" fill="white"/>
</clipPath>
</defs>
</svg>
