<svg width="28" height="36" viewBox="0 0 28 36" fill="none" xmlns="http://www.w3.org/2000/svg">
<path fill-rule="evenodd" clip-rule="evenodd" d="M27.5625 9.47362V33.1577C27.5625 34.7276 26.2856 36 24.7112 36H2.85131C1.27631 36 0 34.7276 0 33.1577V2.84231C0 1.27238 1.27631 0 2.85131 0H18.0579L27.5625 9.47362Z" fill="#3699FF"/>
<path d="M5.67054 22.489C5.67054 21.985 5.76954 21.538 5.96754 21.148C6.17154 20.758 6.44754 20.458 6.79554 20.248C7.14354 20.038 7.53054 19.933 7.95654 19.933C8.28054 19.933 8.58954 20.005 8.88354 20.149C9.17754 20.287 9.41154 20.473 9.58554 20.707V18.34H10.8635V25H9.58554V24.262C9.42954 24.508 9.21054 24.706 8.92854 24.856C8.64654 25.006 8.31954 25.081 7.94754 25.081C7.52754 25.081 7.14354 24.973 6.79554 24.757C6.44754 24.541 6.17154 24.238 5.96754 23.848C5.76954 23.452 5.67054 22.999 5.67054 22.489ZM9.59454 22.507C9.59454 22.201 9.53454 21.94 9.41454 21.724C9.29454 21.502 9.13254 21.334 8.92854 21.22C8.72454 21.1 8.50554 21.04 8.27154 21.04C8.03754 21.04 7.82154 21.097 7.62354 21.211C7.42554 21.325 7.26354 21.493 7.13754 21.715C7.01754 21.931 6.95754 22.189 6.95754 22.489C6.95754 22.789 7.01754 23.053 7.13754 23.281C7.26354 23.503 7.42554 23.674 7.62354 23.794C7.82754 23.914 8.04354 23.974 8.27154 23.974C8.50554 23.974 8.72454 23.917 8.92854 23.803C9.13254 23.683 9.29454 23.515 9.41454 23.299C9.53454 23.077 9.59454 22.813 9.59454 22.507ZM14.3081 25.081C13.8281 25.081 13.3961 24.976 13.0121 24.766C12.6281 24.55 12.3251 24.247 12.1031 23.857C11.8871 23.467 11.7791 23.017 11.7791 22.507C11.7791 21.997 11.8901 21.547 12.1121 21.157C12.3401 20.767 12.6491 20.467 13.0391 20.257C13.4291 20.041 13.8641 19.933 14.3441 19.933C14.8241 19.933 15.2591 20.041 15.6491 20.257C16.0391 20.467 16.3451 20.767 16.5671 21.157C16.7951 21.547 16.9091 21.997 16.9091 22.507C16.9091 23.017 16.7921 23.467 16.5581 23.857C16.3301 24.247 16.0181 24.55 15.6221 24.766C15.2321 24.976 14.7941 25.081 14.3081 25.081ZM14.3081 23.983C14.5361 23.983 14.7491 23.929 14.9471 23.821C15.1511 23.707 15.3131 23.539 15.4331 23.317C15.5531 23.095 15.6131 22.825 15.6131 22.507C15.6131 22.033 15.4871 21.67 15.2351 21.418C14.9891 21.16 14.6861 21.031 14.3261 21.031C13.9661 21.031 13.6631 21.16 13.4171 21.418C13.1771 21.67 13.0571 22.033 13.0571 22.507C13.0571 22.981 13.1741 23.347 13.4081 23.605C13.6481 23.857 13.9481 23.983 14.3081 23.983ZM17.5094 22.507C17.5094 21.991 17.6144 21.541 17.8244 21.157C18.0344 20.767 18.3254 20.467 18.6974 20.257C19.0694 20.041 19.4954 19.933 19.9754 19.933C20.5934 19.933 21.1034 20.089 21.5054 20.401C21.9134 20.707 22.1864 21.139 22.3244 21.697H20.9654C20.8934 21.481 20.7704 21.313 20.5964 21.193C20.4284 21.067 20.2184 21.004 19.9664 21.004C19.6064 21.004 19.3214 21.136 19.1114 21.4C18.9014 21.658 18.7964 22.027 18.7964 22.507C18.7964 22.981 18.9014 23.35 19.1114 23.614C19.3214 23.872 19.6064 24.001 19.9664 24.001C20.4764 24.001 20.8094 23.773 20.9654 23.317H22.3244C22.1864 23.857 21.9134 24.286 21.5054 24.604C21.0974 24.922 20.5874 25.081 19.9754 25.081C19.4954 25.081 19.0694 24.976 18.6974 24.766C18.3254 24.55 18.0344 24.25 17.8244 23.866C17.6144 23.476 17.5094 23.023 17.5094 22.507Z" fill="white"/>
<path fill-rule="evenodd" clip-rule="evenodd" d="M27.5629 8.94319V10.1222H19.7931C18.1843 10.1222 17.4424 8.81719 17.4424 7.20788V0H18.6191L27.5629 8.94319Z" fill="#7CC9F9"/>
</svg>
