<svg width="28" height="36" viewBox="0 0 28 36" fill="none" xmlns="http://www.w3.org/2000/svg">
<g clip-path="url(#clip0)">
<path fill-rule="evenodd" clip-rule="evenodd" d="M27.5625 9.47362V33.1577C27.5625 34.7276 26.2856 36 24.7112 36H2.85131C1.27631 36 0 34.7276 0 33.1577V2.84231C0 1.27238 1.27631 0 2.85131 0H18.0579L27.5625 9.47362Z" fill="#EAA947"/>
<path d="M5.10659 20.734C5.26859 20.506 5.49059 20.317 5.77259 20.167C6.06059 20.011 6.38759 19.933 6.75359 19.933C7.17959 19.933 7.56359 20.038 7.90559 20.248C8.25359 20.458 8.52659 20.758 8.72459 21.148C8.92859 21.532 9.03059 21.979 9.03059 22.489C9.03059 22.999 8.92859 23.452 8.72459 23.848C8.52659 24.238 8.25359 24.541 7.90559 24.757C7.56359 24.973 7.17959 25.081 6.75359 25.081C6.38759 25.081 6.06359 25.006 5.78159 24.856C5.50559 24.706 5.28059 24.517 5.10659 24.289V27.376H3.84659V20.014H5.10659V20.734ZM7.74359 22.489C7.74359 22.189 7.68059 21.931 7.55459 21.715C7.43459 21.493 7.27259 21.325 7.06859 21.211C6.87059 21.097 6.65459 21.04 6.42059 21.04C6.19259 21.04 5.97659 21.1 5.77259 21.22C5.57459 21.334 5.41259 21.502 5.28659 21.724C5.16659 21.946 5.10659 22.207 5.10659 22.507C5.10659 22.807 5.16659 23.068 5.28659 23.29C5.41259 23.512 5.57459 23.683 5.77259 23.803C5.97659 23.917 6.19259 23.974 6.42059 23.974C6.65459 23.974 6.87059 23.914 7.06859 23.794C7.27259 23.674 7.43459 23.503 7.55459 23.281C7.68059 23.059 7.74359 22.795 7.74359 22.489ZM11.2062 20.734C11.3682 20.506 11.5902 20.317 11.8722 20.167C12.1602 20.011 12.4872 19.933 12.8532 19.933C13.2792 19.933 13.6632 20.038 14.0052 20.248C14.3532 20.458 14.6262 20.758 14.8242 21.148C15.0282 21.532 15.1302 21.979 15.1302 22.489C15.1302 22.999 15.0282 23.452 14.8242 23.848C14.6262 24.238 14.3532 24.541 14.0052 24.757C13.6632 24.973 13.2792 25.081 12.8532 25.081C12.4872 25.081 12.1632 25.006 11.8812 24.856C11.6052 24.706 11.3802 24.517 11.2062 24.289V27.376H9.9462V20.014H11.2062V20.734ZM13.8432 22.489C13.8432 22.189 13.7802 21.931 13.6542 21.715C13.5342 21.493 13.3722 21.325 13.1682 21.211C12.9702 21.097 12.7542 21.04 12.5202 21.04C12.2922 21.04 12.0762 21.1 11.8722 21.22C11.6742 21.334 11.5122 21.502 11.3862 21.724C11.2662 21.946 11.2062 22.207 11.2062 22.507C11.2062 22.807 11.2662 23.068 11.3862 23.29C11.5122 23.512 11.6742 23.683 11.8722 23.803C12.0762 23.917 12.2922 23.974 12.5202 23.974C12.7542 23.974 12.9702 23.914 13.1682 23.794C13.3722 23.674 13.5342 23.503 13.6542 23.281C13.7802 23.059 13.8432 22.795 13.8432 22.489ZM17.5128 21.049V23.461C17.5128 23.629 17.5518 23.752 17.6298 23.83C17.7138 23.902 17.8518 23.938 18.0438 23.938H18.6288V25H17.8368C16.7748 25 16.2438 24.484 16.2438 23.452V21.049H15.6498V20.014H16.2438V18.781H17.5128V20.014H18.6288V21.049H17.5128ZM22.2891 25L21.2631 23.452L20.3541 25H19.0041L20.6331 22.498L18.9861 20.014H20.4081L21.4251 21.553L22.3431 20.014H23.6931L22.0551 22.498L23.7111 25H22.2891Z" fill="white"/>
<path fill-rule="evenodd" clip-rule="evenodd" d="M27.5629 8.94319V10.1222H19.7931C18.1843 10.1222 17.4424 8.81719 17.4424 7.20788V0H18.6191L27.5629 8.94319Z" fill="#F7CB89"/>
</g>
<defs>
<clipPath id="clip0">
<rect width="27.5625" height="36" fill="white"/>
</clipPath>
</defs>
</svg>
