<svg width="28" height="36" viewBox="0 0 28 36" fill="none" xmlns="http://www.w3.org/2000/svg">
<path fill-rule="evenodd" clip-rule="evenodd" d="M27.5625 9.47362V33.1577C27.5625 34.7276 26.2856 36 24.7112 36H2.85131C1.27631 36 0 34.7276 0 33.1577V2.84231C0 1.27238 1.27631 0 2.85131 0H18.0579L27.5625 9.47362Z" fill="#3699FF"/>
<path d="M2.74036 22.489C2.74036 21.985 2.83936 21.538 3.03736 21.148C3.24136 20.758 3.51736 20.458 3.86536 20.248C4.21336 20.038 4.60036 19.933 5.02636 19.933C5.35036 19.933 5.65936 20.005 5.95336 20.149C6.24736 20.287 6.48136 20.473 6.65536 20.707V18.34H7.93336V25H6.65536V24.262C6.49936 24.508 6.28036 24.706 5.99836 24.856C5.71636 25.006 5.38936 25.081 5.01736 25.081C4.59736 25.081 4.21336 24.973 3.86536 24.757C3.51736 24.541 3.24136 24.238 3.03736 23.848C2.83936 23.452 2.74036 22.999 2.74036 22.489ZM6.66436 22.507C6.66436 22.201 6.60436 21.94 6.48436 21.724C6.36436 21.502 6.20236 21.334 5.99836 21.22C5.79436 21.1 5.57536 21.04 5.34136 21.04C5.10736 21.04 4.89136 21.097 4.69336 21.211C4.49536 21.325 4.33336 21.493 4.20736 21.715C4.08736 21.931 4.02736 22.189 4.02736 22.489C4.02736 22.789 4.08736 23.053 4.20736 23.281C4.33336 23.503 4.49536 23.674 4.69336 23.794C4.89736 23.914 5.11336 23.974 5.34136 23.974C5.57536 23.974 5.79436 23.917 5.99836 23.803C6.20236 23.683 6.36436 23.515 6.48436 23.299C6.60436 23.077 6.66436 22.813 6.66436 22.507ZM11.378 25.081C10.898 25.081 10.466 24.976 10.082 24.766C9.69797 24.55 9.39497 24.247 9.17297 23.857C8.95697 23.467 8.84897 23.017 8.84897 22.507C8.84897 21.997 8.95997 21.547 9.18197 21.157C9.40997 20.767 9.71897 20.467 10.109 20.257C10.499 20.041 10.934 19.933 11.414 19.933C11.894 19.933 12.329 20.041 12.719 20.257C13.109 20.467 13.415 20.767 13.637 21.157C13.865 21.547 13.979 21.997 13.979 22.507C13.979 23.017 13.862 23.467 13.628 23.857C13.4 24.247 13.088 24.55 12.692 24.766C12.302 24.976 11.864 25.081 11.378 25.081ZM11.378 23.983C11.606 23.983 11.819 23.929 12.017 23.821C12.221 23.707 12.383 23.539 12.503 23.317C12.623 23.095 12.683 22.825 12.683 22.507C12.683 22.033 12.557 21.67 12.305 21.418C12.059 21.16 11.756 21.031 11.396 21.031C11.036 21.031 10.733 21.16 10.487 21.418C10.247 21.67 10.127 22.033 10.127 22.507C10.127 22.981 10.244 23.347 10.478 23.605C10.718 23.857 11.018 23.983 11.378 23.983ZM14.5792 22.507C14.5792 21.991 14.6842 21.541 14.8942 21.157C15.1042 20.767 15.3952 20.467 15.7672 20.257C16.1392 20.041 16.5652 19.933 17.0452 19.933C17.6632 19.933 18.1732 20.089 18.5752 20.401C18.9832 20.707 19.2562 21.139 19.3942 21.697H18.0352C17.9632 21.481 17.8402 21.313 17.6662 21.193C17.4982 21.067 17.2882 21.004 17.0362 21.004C16.6762 21.004 16.3912 21.136 16.1812 21.4C15.9712 21.658 15.8662 22.027 15.8662 22.507C15.8662 22.981 15.9712 23.35 16.1812 23.614C16.3912 23.872 16.6762 24.001 17.0362 24.001C17.5462 24.001 17.8792 23.773 18.0352 23.317H19.3942C19.2562 23.857 18.9832 24.286 18.5752 24.604C18.1672 24.922 17.6572 25.081 17.0452 25.081C16.5652 25.081 16.1392 24.976 15.7672 24.766C15.3952 24.55 15.1042 24.25 14.8942 23.866C14.6842 23.476 14.5792 23.023 14.5792 22.507ZM23.0713 25L22.0453 23.452L21.1363 25H19.7863L21.4153 22.498L19.7683 20.014H21.1903L22.2073 21.553L23.1253 20.014H24.4753L22.8373 22.498L24.4933 25H23.0713Z" fill="white"/>
<path fill-rule="evenodd" clip-rule="evenodd" d="M27.5629 8.94319V10.1222H19.7931C18.1843 10.1222 17.4424 8.81719 17.4424 7.20788V0H18.6191L27.5629 8.94319Z" fill="#7CC9F9"/>
</svg>
