<svg width="48" height="48" viewBox="0 0 48 48" fill="none" xmlns="http://www.w3.org/2000/svg">
<path opacity="0.3" fill-rule="evenodd" clip-rule="evenodd" d="M16 6V7C16 8.65685 17.3431 10 19 10H29C30.6569 10 32 8.65685 32 7V6H36C38.2091 6 40 7.79086 40 10V42C40 44.2091 38.2091 46 36 46H12C9.79086 46 8 44.2091 8 42V10C8 7.79086 9.79086 6 12 6H16Z" fill="white"/>
<path fill-rule="evenodd" clip-rule="evenodd" d="M22 4C22 2.89543 22.8954 2 24 2C25.1046 2 26 2.89543 26 4H29C29.5523 4 30 4.44772 30 5V7C30 7.55228 29.5523 8 29 8H19C18.4477 8 18 7.55228 18 7V5C18 4.44772 18.4477 4 19 4H22Z" fill="white"/>
<path opacity="0.3" d="M32 18H22C20.8954 18 20 18.8954 20 20C20 21.1046 20.8954 22 22 22H32C33.1046 22 34 21.1046 34 20C34 18.8954 33.1046 18 32 18Z" fill="white"/>
<path opacity="0.3" d="M18 20C18 18.8954 17.1046 18 16 18C14.8954 18 14 18.8954 14 20C14 21.1046 14.8954 22 16 22C17.1046 22 18 21.1046 18 20Z" fill="white"/>
<path opacity="0.3" d="M18 28C18 26.8954 17.1046 26 16 26C14.8954 26 14 26.8954 14 28C14 29.1046 14.8954 30 16 30C17.1046 30 18 29.1046 18 28Z" fill="white"/>
<path opacity="0.3" d="M32 26H22C20.8954 26 20 26.8954 20 28C20 29.1046 20.8954 30 22 30H32C33.1046 30 34 29.1046 34 28C34 26.8954 33.1046 26 32 26Z" fill="white"/>
<path opacity="0.3" d="M18 36C18 34.8954 17.1046 34 16 34C14.8954 34 14 34.8954 14 36C14 37.1046 14.8954 38 16 38C17.1046 38 18 37.1046 18 36Z" fill="white"/>
<path opacity="0.3" d="M32 34H22C20.8954 34 20 34.8954 20 36C20 37.1046 20.8954 38 22 38H32C33.1046 38 34 37.1046 34 36C34 34.8954 33.1046 34 32 34Z" fill="white"/>
</svg>
