<svg width="24" height="24" viewBox="0 0 24 24" fill="none" xmlns="http://www.w3.org/2000/svg">
<path opacity="0.3" d="M5.85714 2H13.7364C14.0911 2 14.4343 2.12568 14.7051 2.35474L19.4687 6.38394C19.8057 6.66895 20 7.08788 20 7.5292V20.0833C20 21.8739 19.9796 22 18.1429 22H5.85714C4.02045 22 4 21.8739 4 20.0833V3.91667C4 2.12612 4.02045 2 5.85714 2Z" fill="#FF4F4F"/>
<path fill-rule="evenodd" clip-rule="evenodd" d="M8.95118 13.8153H10.9077V15.823C10.9077 16.0991 11.1315 16.323 11.4077 16.323H12.431C12.7071 16.323 12.931 16.0991 12.931 15.823V13.8153H14.8874C15.1636 13.8153 15.3874 13.5915 15.3874 13.3153C15.3874 13.197 15.3455 13.0825 15.269 12.9922L12.3009 9.48659C12.1225 9.27584 11.807 9.24964 11.5962 9.42808C11.5751 9.44593 11.5556 9.4655 11.5377 9.48659L8.56959 12.9922C8.39115 13.203 8.41735 13.5185 8.6281 13.6969C8.71839 13.7734 8.83287 13.8153 8.95118 13.8153Z" fill="#FF4F4F"/>
</svg>
