<svg width="48" height="48" viewBox="0 0 48 48" fill="none" xmlns="http://www.w3.org/2000/svg">
<path opacity="0.3" d="M11.7143 4H27.4728C28.1822 4 28.8686 4.25137 29.4102 4.70948L38.9374 12.7679C39.6113 13.3379 40 14.1758 40 15.0584V40.1667C40 43.7478 39.9591 44 36.2857 44H11.7143C8.0409 44 8 43.7478 8 40.1667V7.83333C8 4.25225 8.0409 4 11.7143 4Z" fill="white"/>
<path fill-rule="evenodd" clip-rule="evenodd" d="M17.9024 27.6307H21.8153V31.646C21.8153 32.1983 22.263 32.646 22.8153 32.646H24.8619C25.4142 32.646 25.8619 32.1983 25.8619 31.646V27.6307H29.7749C30.3271 27.6307 30.7749 27.183 30.7749 26.6307C30.7749 26.394 30.6909 26.1651 30.538 25.9845L24.6018 18.9732C24.2449 18.5517 23.6139 18.4993 23.1924 18.8562C23.1503 18.8919 23.1111 18.931 23.0754 18.9732L17.1392 25.9845C16.7823 26.406 16.8347 27.037 17.2562 27.3939C17.4368 27.5468 17.6657 27.6307 17.9024 27.6307Z" fill="white"/>
</svg>
