<svg width="63" height="63" viewBox="0 0 63 63" fill="none" xmlns="http://www.w3.org/2000/svg">
<path fill-rule="evenodd" clip-rule="evenodd" d="M4.54145 40.4739H22.3115V58.5086C22.3115 60.9891 24.3448 63 26.8529 63H36.1472C38.6553 63 40.6886 60.9891 40.6886 58.5086V40.4739H58.4586C60.9668 40.4739 63 38.463 63 35.9825C63 34.9197 62.6189 33.8913 61.9246 33.0802L34.966 1.5893C33.3453 -0.303842 30.4797 -0.539162 28.5656 1.0637C28.374 1.22407 28.1963 1.39988 28.0341 1.5893L1.07552 33.0802C-0.545154 34.9734 -0.307219 37.8074 1.60696 39.4103C2.42708 40.097 3.46686 40.4739 4.54145 40.4739Z" fill="#3699FF"/>
</svg>
